<?xml version="1.0" encoding="UTF-8"?>
<svg xmlns="http://www.w3.org/2000/svg" width="170" height="141" viewBox="0 0 170 141" fill="none">
  <g clip-path="url(#clip0_589_2329)">
    <g clip-path="url(#clip1_589_2329)">
      <path d="M42.843 12.7173C43.1699 12.3168 43.7666 12.6192 44.0526 12.1043C44.2651 12.2024 44.5512 12.1288 44.6656 12.3904C44.8536 12.5538 44.8046 12.8644 44.7392 13.0769C44.8373 13.4774 45.1397 13.788 45.5238 13.9759C46.4474 14.025 47.657 13.788 48.2536 14.6134C47.943 15.8966 49.1526 17.2207 48.3272 18.2423C48.5151 18.5692 47.9022 19.2394 48.6132 19.3293C49.1608 19.4928 49.6839 19.3293 50.0353 18.8062C51.5964 16.8365 48.7276 15.1529 49.6349 13.1178C48.6132 12.4312 47.5507 12.9788 46.2675 12.7173C45.8916 12.1942 45.4829 11.5322 44.8454 11.2461C43.9709 10.7721 43.3252 11.5567 42.6387 12.0961C42.4998 12.3332 42.5897 12.6437 42.8512 12.7091L42.843 12.7173Z" fill="#E11F1D"></path>
      <path d="M43.4805 8.23028C43.9055 8.15672 44.1671 8.70432 44.5022 8.80239C45.0252 9.51345 45.1642 10.5106 45.9733 10.9601C46.5209 10.5841 46.2594 10.061 46.3248 9.48893C45.3767 8.92499 45.5401 7.78076 44.6656 7.20864C44.2815 7.18412 43.8156 6.92259 43.4805 7.25768C43.4805 7.58461 42.9574 7.96874 43.4805 8.23028Z" fill="#E11F1D"></path>
      <path d="M32.4305 17.9562C32.4305 18.3812 32.5694 18.6673 32.831 18.9288L32.9536 18.7654C33.1661 18.7654 33.4031 18.7163 33.5665 18.8144C34.0651 18.4875 34.0896 17.9154 33.967 17.3923C33.7055 17.2043 33.3704 17.0572 33.117 17.0572C32.504 16.8937 32.3569 17.5557 32.4305 17.9562Z" fill="#E11F1D"></path>
      <path d="M47.9103 17.2697C47.1012 16.6076 45.5401 15.9865 44.731 17.0572C44.6574 17.3677 44.4204 17.9072 44.8944 18.0788C45.867 17.2942 46.8886 18.3158 47.8612 18.3158C48.1963 18.0298 47.9348 17.5557 47.9103 17.2697Z" fill="#E11F1D"></path>
      <path d="M40.9227 5.72116C40.9963 6.03174 40.5467 6.29328 40.8491 6.57933C41.2251 6.74279 41.8953 6.81635 42.0588 6.29328L41.9362 3.44904C41.364 2.50097 40.416 1.69183 39.615 1.00529C39.427 0.907218 39.0919 0.980777 39.0919 0.719238C38.8549 0.8827 38.5934 0.743756 38.3563 0.841833C37.9804 1.02981 37.5717 1.43029 37.5063 1.86347C37.9804 2.2476 38.5525 2.31299 39.141 2.38654C40.0155 3.4327 40.9636 4.30722 40.9227 5.72933V5.72116Z" fill="#E11F1D"></path>
      <path d="M33.8036 4.53608C34.8007 4.25002 35.6752 4.88752 36.4844 5.43511C36.8195 5.74569 37.269 5.98271 37.506 6.28512C36.1738 7.28223 33.9752 6.73463 33.2396 8.51637C33.4521 8.9904 33.9017 8.80242 34.3103 8.91685C35.2584 7.96877 36.3699 7.44569 37.6776 7.37214C38.0127 7.79714 37.8656 8.44281 38.2906 8.84329C39.0507 8.72887 39.5493 7.91973 39.7127 7.25771C39.5002 6.23608 38.4786 5.88464 38.0045 4.97742C36.844 3.66973 35.1603 3.48175 33.5747 3.39185C33.0762 3.44088 32.6021 3.79233 32.3896 4.24185C32.3651 4.45435 32.4142 4.66685 32.6021 4.81396C33.0762 5.31252 33.5012 4.863 33.8118 4.52791L33.8036 4.53608Z" fill="#E11F1D"></path>
      <path d="M46.8318 51.2534C46.0145 51.5803 45.8756 52.6755 45.6631 53.3294C45.8265 53.4928 45.3116 53.6563 45.6631 53.8197C45.8265 54.3755 46.3823 54.8495 46.8318 55.2173C47.2323 55.0784 47.6001 55.5443 47.9515 55.1683C49.2102 53.9995 50.6323 52.602 51.7111 51.3678C52.4794 50.8774 52.8063 49.8231 53.8361 49.8476C54.4655 49.6596 55.1684 49.1284 55.7486 48.7769C56.9419 48.262 58.176 47.4039 59.5083 47.4938C59.3938 47.9596 58.9525 48.262 58.7155 48.687C58.4784 49.4308 58.0371 50.0846 57.7102 50.812C55.6097 56.762 55.0539 63.5947 53.2313 69.7818C52.7655 71.2284 52.3895 72.7404 51.5967 73.9827C51.1554 75.2904 50.5669 76.5491 49.5943 77.6279C48.5482 78.1346 47.5429 77.677 46.5131 77.4154C45.7203 77.3173 44.764 76.8351 44.0366 77.4154C44.1265 78.4207 44.8784 79.3279 45.7857 79.8183C46.0881 79.9164 46.4395 79.7529 46.7174 80.0553C49.0467 80.2188 51.6866 79.475 54.2284 79.8183C54.9313 80.1207 55.6015 80.4967 56.4188 80.4967C57.5631 80.3986 58.5193 79.8428 59.541 79.4914C60.3828 78.7476 61.7313 78.5106 62.6631 78.8621C63.7337 78.3962 64.9515 78.2572 66.0958 77.9794C68.6131 77.064 70.9751 75.3395 72.7486 73.1491C73.8929 71.3755 74.8982 69.038 73.7049 66.9866C72.8385 65.8914 72.2092 64.5346 70.9097 63.7419C70.4684 63.2515 69.6919 63.325 69.3977 62.6875C68.5804 62.2952 67.7876 61.8457 66.9458 61.5678C66.5943 61.0774 65.8751 61.3798 65.589 60.8241C65.916 60.6606 66.1693 60.3337 66.5943 60.3827C66.7578 59.9169 67.1991 60.3827 67.2727 59.9414C69.4876 59.6798 71.3347 58.7726 72.9448 57.138V56.9746C74.277 55.8303 75.3967 54.4491 75.3477 52.7736C74.9962 51 74.5794 49.1774 73.5496 47.7308C73.0347 47.3794 72.5198 46.7991 71.8741 46.7255C69.6592 46.7255 67.9265 45.8837 65.7607 45.4914C64.5265 45.05 63.0063 44.9274 61.7477 44.9274C61.4208 45.2053 60.8813 45.0173 60.5544 45.3279C59.1813 45.3279 57.6121 45.6058 56.427 46.3741C55.6097 46.9135 54.7434 47.3058 53.9097 47.7717C53.2804 47.8452 52.7655 48.45 52.1607 48.213C51.6703 48.5645 51.041 48.401 50.477 48.2784C49.2919 49.4226 48.0251 50.1909 46.84 51.2452L46.8318 51.2534ZM66.7087 63.7991C67.3871 64.314 68.3679 64.077 68.8991 64.9188C69.9943 66.9294 68.5232 69.0462 68.4578 71.0813C68.2698 71.6207 68.3188 72.3399 68.3842 72.9202C67.289 74.2279 66.0304 74.5303 64.7472 75.552L64.6982 75.4784C63.4886 76.6471 61.5924 76.2221 60.2193 76.7125C58.3313 77.2765 56.1818 77.5053 54.1794 77.3909C54.4164 74.3587 56.5578 71.9068 56.7458 68.8745C57.8655 66.9375 58.6583 64.7717 59.0996 62.5976C60.2684 61.7313 61.7395 62.5322 63.1371 62.0419C64.0198 61.8784 64.7227 62.5322 65.589 62.5976C65.965 62.9736 66.9212 63.137 66.7087 63.7909V63.7991ZM62.6222 49.3327C62.8592 48.638 63.0145 47.9351 63.6275 47.5592C64.4693 47.3548 65.3275 47.2077 66.2184 47.5592C66.8232 47.6327 67.428 47.7717 67.9429 48.1231C68.2698 48.1967 68.5232 48.4745 68.8256 48.5645C69.0135 48.8178 69.5039 49.0058 69.6184 49.4063C70.2232 49.5697 70.5501 50.1991 70.9751 50.6895C71.114 52.2096 70.5501 53.5092 69.9453 54.776C69.5693 55.4952 69.365 56.3125 69.0626 57.089C66.2184 58.2577 63.1861 60.4072 59.9414 59.3284C60.2438 55.7568 61.1347 52.4221 62.6222 49.3409V49.3327Z" fill="#E11F1D"></path>
      <path d="M83.2918 80.1289C84.4606 79.8265 85.7437 79.7365 86.7 78.9192C87.5173 78.5433 88.261 78.0611 89.0538 77.6116C90.0346 75.789 91.5711 74.3668 92.0615 72.3644C92.037 71.9231 92.413 71.3591 91.9634 71.0077C91.2197 71.0077 90.6803 71.3837 90.288 71.964C90.0509 71.9394 89.7485 72.1519 89.9365 72.4053C89.1928 73.7784 88.3509 75.0616 87.2067 76.1567C85.899 77.1866 84.1009 78.0938 82.4908 77.3909C82.025 77.0394 81.3466 76.7616 81.3221 76.1077C81.0442 74.3832 80.9053 72.4216 81.3711 70.5991C81.6735 68.9154 83.2346 67.4769 84.8937 67.1418C86.7327 66.725 88.5553 66.3736 90.5658 66.112C92.0615 64.9923 93.2466 63.3087 93.925 61.6986C94.162 60.9303 94.3908 59.876 94.0884 59.1813C93.2057 58.0125 91.7591 57.5466 90.4923 57.2197C88.9966 57.4567 87.6889 58.8298 86.0788 58.1024C85.3351 58.6827 84.4197 59.312 83.9293 60.064C83.8394 60.2274 83.6923 60.4644 83.4389 60.4644C80.9216 63.3577 79.1481 66.5534 78.0447 70.0269C78.0937 72.6668 77.2029 74.8572 78.1591 77.301C79.1399 79.2625 81.4283 80.0063 83.2673 80.1043L83.2918 80.1289ZM85.9072 61.9356C86.6264 61.3962 86.9125 60.3745 87.8197 60.0476C88.212 59.8351 88.6615 59.4837 89.1029 59.3284C89.3317 59.4428 89.6178 59.3284 89.8221 59.214C90.288 59.1404 90.7538 59.3284 91.2197 59.3774C91.6856 60.7505 90.5413 61.8702 89.8221 62.9736C87.8605 64.1178 85.9072 65.262 83.7331 65.8668C84.3625 64.6572 85.0654 63.2106 85.9072 61.9438V61.9356Z" fill="#E11F1D"></path>
      <path d="M120.177 54.8414C120.667 55.1928 121.133 55.4217 121.738 55.2173C122.441 54.8659 122.972 54.539 123.765 54.4491C123.879 54.4981 124.067 54.6125 124.043 54.776C123.626 55.6423 123.062 56.4596 122.571 57.2933C122.294 58.7154 120.732 58.5274 119.891 59.3202C119.539 59.925 120.03 60.5789 120.52 60.8813C120.822 60.7178 121.1 61.1592 121.452 60.9303C124.394 59.1568 126.07 56.051 126.495 52.8798H126.405C126.478 52.3159 126.29 51.7601 126.127 51.2452C125.334 49.725 123.609 49.2592 122.089 49.6842C121.157 49.7986 120.994 50.8284 120.618 51.4822C120.103 51.8745 120.038 52.463 119.85 52.9697C119.85 53.5745 119.498 54.3673 120.177 54.8414Z" fill="#E11F1D"></path>
      <path d="M100.096 65.3683C97.6437 70.4519 96.5976 76.0995 94.4971 81.3221C94.6115 81.6 94.5461 82.025 94.873 82.1639L96.3442 81.0933C96.7447 80.9788 97.186 81.2567 97.3495 81.6082C98.2158 80.4885 98.7226 79.2053 99.4254 78.012C99.8177 77.7587 99.5399 77.0558 100.104 77.0067L100.03 76.9577C101.264 74.1135 102.646 71.1058 104.297 68.3269C105.629 66.6188 106.61 64.6654 108.31 63.2433C108.563 63.1779 108.702 62.426 109.217 62.6139C109.454 62.7284 109.544 62.663 109.781 62.5649C110.173 62.1726 111.227 62.4914 111.293 61.6087C111.595 61.4942 111.783 61.2164 112.012 61.0529C112.224 61.1019 112.388 61.2409 112.412 61.4942C112.69 61.6332 113.001 61.7313 113.181 61.9356C113.295 62.1481 113.671 62.2135 113.581 62.5649C113.908 62.8183 113.884 63.2433 114.023 63.5702C113.957 65.6216 113.344 67.6731 113.017 69.6101C112.854 71.1957 112.135 72.6178 112.012 74.1625C111.358 74.4404 111.636 75.1841 111.334 75.65C110.304 76.7043 109.748 78.0039 108.931 79.1971C108.416 79.6385 107.697 79.9245 106.969 79.8019C107.182 78.1019 108.416 75.9279 106.904 74.4404C105.874 74.7428 104.411 74.375 103.896 75.6091C104.713 76.8433 103.823 78.3635 103.545 79.6466C103.406 80.6274 104.427 81.1832 105.016 81.6572C106.209 82.0822 107.811 82.0986 108.865 81.5428C108.98 80.938 109.634 80.75 110.173 80.5375C110.827 79.6303 111.432 78.625 112.184 77.8077V77.5707C114.636 73.6067 116.752 69.4793 117.267 64.6899C117.243 64.175 117.668 63.8236 117.504 63.3414C116.875 62.9164 116.973 62.0337 116.27 61.6168C115.706 60.6606 114.824 59.9168 113.867 59.3284C113.148 59.0914 112.445 58.6745 111.677 58.7644C108.53 60.8894 105.024 63.4067 102.67 66.6515L102.556 67.2563C102.768 67.8365 102.229 68.237 102.278 68.8418C101.951 69.5611 101.673 70.5664 100.88 71.0813C100.79 71.0077 100.831 70.8933 100.831 70.8034C100.946 70.6644 100.946 70.4519 101.158 70.4519L101.044 70.3375C101.371 69.6101 101.583 68.8418 101.722 68.049C102.212 65.8587 103.406 63.8726 103.961 61.7721C104.664 61.0284 104.051 60.0885 104.239 59.2058C104.264 58.3394 103.259 58.5519 102.719 58.364C102.417 58.4784 101.951 58.5928 101.673 58.4784C100.856 58.9442 99.9894 59.2957 99.1557 59.688C98.036 61.388 96.5403 62.9082 96.287 64.9596C96.4014 65.2865 96.7528 65.0087 96.9163 65.1231C97.2187 65.0986 97.4557 64.6981 97.7581 64.8452C98.8533 64.1668 99.3192 62.9817 100.324 62.2053L100.398 62.2789C100.676 62.0745 100.676 61.5351 101.125 61.8375C101.076 62.3279 101.199 62.8183 101.052 63.3332C100.7 64.0361 100.398 64.6409 100.12 65.3601L100.096 65.3683Z" fill="#E11F1D"></path>
      <path d="M42.3855 32.251C42.5489 32.676 42.9086 32.3245 43.1946 32.4145C44.3307 31.9895 44.2816 30.6818 44.3307 29.6193C44.1672 29.2842 44.3797 28.8346 44.3797 28.4342C44.6412 27.9111 45.1643 27.8866 45.5893 27.5106C45.8263 26.7015 46.0879 25.6635 45.8018 24.8544C45.5158 24.5683 45.2542 24.2169 44.8292 24.2904C42.786 24.6419 45.4259 25.925 44.4533 26.8486C44.1917 27.2981 43.7667 27.6087 43.3662 27.7967C42.9903 28.1481 42.0422 28.6467 42.3937 29.1697C43.9384 29.9053 42.1321 31.1149 42.3937 32.251H42.3855Z" fill="#E11F1D"></path>
      <path d="M43.3172 23.8817C43.0802 23.4976 42.7042 23.0481 42.2711 22.9091C41.9115 22.7457 41.3475 22.7211 41.0369 22.9582C40.7018 23.1952 40.7754 23.7428 40.849 24.0043C41.274 24.1269 41.7235 23.9553 42.0586 24.2168C42.222 25.6635 40.6119 25.974 39.9009 26.8486C39.3124 27.2 39.1898 26.4481 38.6422 26.5625C38.3807 26.7096 38.1927 26.9466 38.1191 27.2245C38.5441 27.625 38.9038 28.3851 39.6148 28.1481C41.2985 27.2245 42.9331 25.8269 43.309 23.8817H43.3172Z" fill="#E11F1D"></path>
      <path d="M40.3993 9.41543C39.8517 9.06399 39.2388 9.41543 38.6912 9.53803C37.5061 10.1755 37.2936 11.5077 37.269 12.6683L37.5061 12.9053C37.6205 12.9053 37.7676 12.9299 37.8412 12.7827C38.5767 12.2188 38.7402 11.4342 39.0998 10.7231C39.1243 10.1592 39.6229 10.0856 40.1214 10.0611C40.9061 10.5351 40.9306 11.5323 41.2085 12.3332C41.3311 12.4722 41.4945 12.5702 41.658 12.6193C41.9686 12.1207 42.0585 11.2707 41.7724 10.7967C41.5109 10.2 40.9878 9.68514 40.3993 9.42361V9.41543Z" fill="#E11F1D"></path>
      <path d="M37.2691 24.9524C38.3561 25.0913 39.2634 24.1677 39.9499 23.4322C39.2143 22.2226 41.2576 21.724 40.8489 20.4653C40.7999 20.1793 40.4893 20.0158 40.236 19.9423C39.7374 20.9394 38.7158 21.3889 38.4134 22.4596C39.2634 23.5221 37.4653 22.9091 37.2283 23.7182C37.1302 24.0942 36.8686 24.6418 37.2773 24.9524H37.2691Z" fill="#E11F1D"></path>
      <path d="M39.3286 34.9072C39.6801 34.7683 40.2031 35.2423 40.5137 34.7438C40.4647 34.3923 40.7753 34.1716 40.8488 33.8447C41.2248 32.4716 40.5137 31.213 40.6854 29.7909C40.4483 29.4803 40.0724 28.8918 39.6637 29.2923V31.6135C39.8027 32.8231 37.9065 33.8692 39.3286 34.9072Z" fill="#E11F1D"></path>
      <path d="M46.6597 24.6173C47.5343 23.3832 47.5833 21.9611 47.1093 20.4654C46.9703 19.4683 45.7362 19.2803 45.0251 19.7298C44.5756 20.6779 45.8751 20.5553 46.2102 21.201C46.1857 22.3861 46.2838 23.3342 45.9242 24.4457C46.1367 24.5928 46.3737 24.6337 46.6597 24.6092V24.6173Z" fill="#E11F1D"></path>
      <path d="M44.0447 18.8062C43.6932 18.1442 42.9985 17.8091 42.3365 17.6702C41.9605 17.7846 41.5273 18.0461 41.5273 18.5202C42.0259 19.4192 42.0995 20.5389 43.023 21.2009C43.3091 21.3644 43.6197 21.4134 43.873 21.1519C43.7995 20.3918 44.298 19.6562 44.0365 18.8062H44.0447Z" fill="#E11F1D"></path>
      <path d="M41.421 14.3764C41.421 14.687 41.184 14.9894 41.4945 15.2264C42.2056 15.3899 43.0801 15.1284 43.8157 15.2264L44.0527 14.9894C44.1018 14.7034 43.9792 14.4908 43.9383 14.2538C43.3008 13.8043 41.9441 13.2812 41.421 14.3683V14.3764Z" fill="#E11F1D"></path>
      <path d="M123.144 115.69C121.746 116.434 121.771 118.42 120.185 118.673C119.768 117.48 119.482 116.107 118.951 114.913C118.509 113.794 118.109 112.601 117.39 111.669C117.136 110.901 116.622 110.222 116.058 109.593C115.821 109.217 115.24 108.865 115.101 108.4L116.662 107.795C117.455 107.541 118.223 107.214 118.951 106.798C121.215 105.98 123.291 103.765 123.618 101.363C123.806 99.8914 123.217 98.5183 122.097 97.6029C120.561 97.2269 119.368 98.3467 118.223 99.2784C117.194 100.349 116.286 101.608 115.216 102.425C115.518 99.7197 116.286 97.2024 116.94 94.6361C117.659 92.3476 118.387 89.8957 119.18 87.7462C119.204 86.9534 119.883 86.3241 119.621 85.5558C119.711 84.8039 118.967 84.387 118.501 83.9457C117.921 83.8721 117.382 83.5207 116.777 83.6678C116.049 83.6923 115.984 84.4606 115.543 84.5015C114.537 85.7846 112.903 86.5284 112.134 88.0241C111.857 88.6043 111.481 89.2827 111.783 89.9856C112.764 90.5659 113.279 89.2418 113.908 88.7515C114.022 88.0731 114.75 87.6072 115.142 87.1904L115.208 87.2395C115.347 86.9861 115.633 86.9861 115.861 86.9616C116.049 87.452 116.049 88.3428 115.861 88.8087C115.796 89.6995 115.633 90.5414 115.371 91.326C114.832 93.9169 113.597 96.1808 113.409 98.8861C111.571 101.902 110.892 105.376 109.813 108.686C109.699 109.568 109.372 110.32 109.323 111.203C108.857 111.342 109.11 111.857 109.045 112.159C108.465 114.145 107.876 116.36 107.018 118.322C106.74 118.812 106.315 119.253 106.413 119.883C106.691 120.586 107.509 120.349 108.023 120.398C109.192 119.253 109.911 117.97 110.214 116.483C110.982 114.497 111.244 112.233 112.895 110.647H113.132C115.232 113.328 115.232 116.875 117.537 119.441V119.605C118.379 120.21 119.221 120.913 120.128 121.239C122.482 120.373 123.413 117.995 123.814 115.804L123.536 115.526C123.471 115.739 123.258 115.551 123.144 115.69ZM119.458 100.079C119.695 100.128 119.997 99.9404 120.136 100.243C120.25 102.016 119.744 103.904 118.011 104.771C116.916 104.983 116.188 106.078 115.093 106.283C116.425 104.158 118.052 102.18 119.458 100.079Z" fill="#E11F1D"></path>
      <path d="M52.1848 130.761C49.7165 131.35 47.5833 129.739 45.0742 129.739C42.516 127.533 39.8598 125.522 37.7266 122.743C37.6531 122.506 37.179 122.318 37.5141 122.057C36.2064 121.485 36.8766 119.711 35.9285 118.812C34.7925 118.501 34.866 117.055 33.6973 116.818C33.4112 117.218 33.9098 117.578 33.9833 117.954C34.9314 118.689 34.5963 119.973 35.1684 120.847C35.5934 122.057 36.3781 123.103 37.1627 124.165C37.2117 124.353 37.3016 124.476 37.5223 124.5C39.7944 127.206 42.6223 129.339 45.1314 131.856C45.818 132.093 46.4555 132.445 47.191 132.592C48.1882 131.309 49.8718 131.905 51.2204 132.069C50.7708 132.78 50.4357 133.515 49.8718 134.177C48.7603 135.984 46.1776 134.439 44.968 135.714C45.6055 136.425 46.5535 135.501 47.1992 136.049C47.1992 136.425 46.7742 136.286 46.5617 136.409C45.0415 137.022 43.3579 136.981 41.9112 137.594C41.6497 137.357 41.3146 137.806 41.1511 137.545L40.6526 137.757C37.9473 137.921 34.8906 138.542 32.1199 137.635C31.1228 137.324 30.0603 137.185 29.2757 136.499C30.1257 136 30.8857 136.621 31.8338 136.572C32.1444 136.335 32.5204 136.025 32.5204 135.6C31.3598 134.938 30.0521 135.363 28.9896 135.886C28.393 136.123 27.9189 136.793 28.1396 137.43C28.4502 138.068 29.1122 138.378 29.7742 138.403C35.6098 140.896 41.9112 137.904 47.7713 137.43C49.5694 135.984 50.9507 134.063 52.7242 132.306V131.17C52.6261 130.957 52.3891 130.835 52.2011 130.769L52.1848 130.761Z" fill="#E11F1D"></path>
      <path d="M100.701 97.0471C99.3439 97.2106 98.0852 97.6764 97.0145 98.4039C96.0093 98.7962 95.192 99.7279 94.4237 100.48V100.643C91.9963 103.725 91.5794 107.738 90.6641 111.399C90.9011 112.944 91.5059 114.341 92.0208 115.763C92.5602 117.512 93.9333 119.196 95.7069 119.85C96.5242 119.801 97.3415 119.752 98.0198 119.409C98.2323 119.082 98.7227 119.36 98.8617 118.967C101.542 117.66 103.275 114.905 104.624 112.339C106.209 108.628 106.258 103.52 104.387 99.6952C103.733 98.2894 102.196 97.2923 100.701 97.0553V97.0471ZM102.54 108.759C102 110.86 101.469 112.96 100.415 114.848C99.2703 116.221 97.6602 117.553 95.6987 116.998C92.8953 112.805 95.6742 107.991 96.2136 103.725C97.4968 101.951 98.3631 98.5019 101.371 99.4091L101.861 100.014C102.115 101.134 102.237 102.278 102.883 103.21C102.932 105.057 103.071 106.945 102.531 108.759H102.54Z" fill="#E11F1D"></path>
      <path d="M88.4244 98.8452C88.1465 97.6764 86.8143 96.9327 85.858 96.6058C84.8528 96.6058 83.8066 96.3524 82.8258 96.6058C82.7278 96.5567 82.6379 96.4178 82.5479 96.6058C80.235 97.1452 79.0499 99.5399 77.6278 101.248V101.485C77.5133 101.689 77.3989 102.049 77.0638 102.049C77.2763 102.302 76.835 102.09 76.7859 102.327L77.023 102.539C76.5816 103.12 76.459 103.896 76.2956 104.501C75.7153 106.275 75.3883 108.277 75.0614 110.222C74.8244 110.59 75.2739 111.039 74.8979 111.342L75.0614 111.505C75.1758 111.669 75.0614 111.857 74.947 111.971C75.2249 112.135 74.8571 112.413 75.1758 112.576C75.1758 114.162 75.9196 115.445 76.6715 116.728C78.1427 117.897 79.8427 117.799 81.6653 117.782C84.4196 115.142 86.5446 112.372 87.9912 108.988C88.2037 108.244 88.5061 107.541 88.784 106.822C88.972 105.58 89.1355 104.558 89.0619 103.226L89.1763 103.063C89.1763 101.64 88.7513 100.243 88.4244 98.8615V98.8452ZM85.3431 108.408C85.0407 108.988 84.9917 109.805 84.6157 110.435C83.733 112.437 82.2619 114.072 80.6518 115.592C80.1614 115.551 79.81 115.69 79.4177 115.404C78.4859 114.472 78.7148 112.952 78.5268 111.677C78.5513 111.187 78.5268 110.672 78.6903 110.206C78.4778 109.102 78.8047 107.893 78.8537 106.847C79.1316 105.678 79.246 104.354 79.9244 103.275C80.4148 101.322 82.0903 99.6135 83.7739 98.5673C84.2643 98.5428 84.8446 98.5183 85.008 99.0087C85.8499 99.45 86.0133 100.594 85.8989 101.412C86.3893 103.626 85.7845 106.193 85.335 108.408H85.3431Z" fill="#E11F1D"></path>
      <path d="M75.0616 88.163C73.615 86.4303 71.7924 85.2452 69.9534 84.0601C67.338 83.0303 65.0087 84.6649 62.7448 85.4577C62.2544 85.4087 61.8784 86.087 61.2736 85.8091C60.8323 86.226 59.8515 86.0625 59.5491 86.8144C59.3611 86.9288 59.1976 86.7654 59.2712 87.0923C55.3726 91.0808 52.9943 95.8865 51.7602 101.093L51.5476 101.207C51.5967 102.866 50.8284 104.403 50.8693 106.136C50.3544 107.133 50.9837 108.277 50.7058 109.331C50.9183 110.614 50.9592 111.898 51.1063 113.091C51.4741 113.254 51.0327 113.606 51.3188 113.81C51.4577 115.142 52.0871 116.303 52.7164 117.447C54.065 119.409 56.288 120.716 58.5438 120.921C60.0395 121.199 61.3472 120.643 62.7448 120.52C67.526 119.262 71.1222 114.456 71.7025 109.764C71.5635 109.601 71.49 109.438 71.539 109.2C71.2611 109.013 70.9587 108.849 70.5827 108.923C69.1606 110.811 68.1063 112.862 66.8231 114.799C64.6327 117.088 61.8049 119.213 58.4702 118.387C52.4303 116.123 56.7702 109.013 55.389 104.55C57.1871 102.499 55.626 99.0659 58.1924 97.3904C58.5193 96.7611 59.0996 96.0827 58.8707 95.3635C59.688 93.263 60.5299 91.1625 61.8294 89.2745C62.8102 88.1548 63.8073 86.9207 65.2621 86.6837C65.6544 86.2178 66.4553 86.2423 67.0602 86.0053C68.09 85.5885 68.7193 86.7981 69.6265 87.0269C72.0049 89.013 69.602 92.2087 71.4736 94.5216C71.915 94.6851 72.2909 95.4779 72.7568 95.0365C74.1789 93.0096 76.1813 90.8111 75.0698 88.1548L75.0616 88.163Z" fill="#E11F1D"></path>
      <path d="M126.969 83.0466C127.206 82.7197 127.524 82.9567 127.81 82.8832C128.113 82.5072 128.579 82.4909 128.93 82.2048C129.911 81.6654 130.728 80.7091 131.496 79.9654C132.289 78.9601 132.968 77.7505 132.731 76.4428C132.518 74.2279 131.047 72.6423 130.213 70.6808L130.328 70.5663L129.976 70.2394C129.649 68.6538 128.857 67.2726 128.415 65.7606C128.44 65.5236 128.44 65.4337 128.366 65.2457C128.505 64.7798 128.505 64.2404 128.693 63.799C128.857 63.4476 129.02 63.0308 129.298 62.8428C129.347 62.1889 130.066 62.001 130.532 61.7721L130.646 61.8865C130.671 61.8212 130.597 61.6986 130.695 61.6495C130.834 61.625 130.949 61.7149 130.973 61.8375C131.251 61.5841 131.464 61.7231 131.766 61.6005C131.954 61.9029 132.395 61.7639 132.722 61.8784C132.837 62.0418 133.098 62.4586 133.401 62.2053C134.267 62.4832 133.352 63.1615 133.679 63.6764C133.401 64.3793 133.703 65.1476 133.605 65.8423C133.818 66.8231 134.512 67.9183 135.518 68.1962C136.057 68.1716 136.425 67.6322 136.801 67.3053C136.842 65.1394 137.03 62.4505 134.79 61.3062C133.507 60.7668 132.199 59.8106 130.753 60.1865C130.475 60.2764 130.05 60.399 129.796 60.1865C127.304 58.6909 127.018 62.4995 125.645 63.5947C125.089 65.2538 125.089 67.3543 125.432 68.9889C126.225 71.0159 127.304 72.9529 128.955 74.6365C129.886 75.1269 129.355 76.1077 129.559 76.9495L129.396 77.0394L129.51 77.1539C129.51 78.4615 129.674 79.6712 128.44 80.3986C127.573 80.799 126.756 81.7308 125.71 81.6327C125.195 81.3303 125.13 80.75 124.803 80.3087C124.5 79.9572 124.01 79.8918 123.593 80.0308C122.915 78.862 121.354 77.8567 122.122 76.3202L120.839 74.8C120.111 74.6856 119.531 74.7264 118.992 75.1923C118.362 76.312 119.695 77.2683 119.106 78.388C120.316 79.3197 121.068 80.2514 122.277 81.1913C122.416 81.3303 122.465 81.6572 122.743 81.5918C123.397 82.2212 124.304 82.687 125.146 82.875C125.383 83.1284 125.71 82.8096 125.865 83.1529C126.127 82.8505 126.544 82.9894 126.944 83.0385L126.969 83.0466Z" fill="#E11F1D"></path>
      <path d="M135.69 90.1163C134.218 90.9582 132.706 92.5437 133.058 94.4072L134.292 95.7149C134.668 95.8538 135.085 95.9274 135.412 95.6413C136.368 94.2192 138.092 93.0259 137.602 91.0481C137.234 90.3288 136.433 90.1899 135.69 90.1163Z" fill="#E11F1D"></path>
      <path d="M126.119 71.3346C126.078 71.3101 126.062 71.2529 126.004 71.2692C126.045 71.3101 126.021 71.4245 126.119 71.3837V71.3428V71.3346Z" fill="#E11F1D"></path>
      <path d="M144.818 109.2C145.472 108.988 146.175 108.963 146.78 108.645C147.646 108.203 148.464 107.713 149.371 107.362C149.51 107.125 149.886 107.149 150.098 106.92C150.867 106.732 151.52 106.315 152.338 106.242L154.348 103.095L154.414 102.719C154.79 101.951 155.092 101.036 154.79 100.128L154.7 99.8015C152.182 97.75 149.404 100.341 146.625 99.9649L145.268 100.962C145.129 101.24 144.729 101.567 144.385 101.681C144.246 102.033 143.846 102.286 143.78 102.646C143.151 102.858 143.151 103.602 142.587 103.831L142.653 103.88C141.582 105.188 140.928 106.798 139.947 108.13C139.808 111.072 138.877 113.982 139.228 117.038C139.228 117.504 139.718 117.831 139.465 118.322H139.629C139.931 119.065 140.193 119.858 140.863 120.398C141.958 121.051 143.241 120.61 144.385 120.349C146.224 120.512 147.442 119.155 148.815 118.199C150.286 116.777 151.128 115.028 150.867 113.115C150.777 112.952 150.564 112.878 150.425 112.952C148.137 113.099 148.603 115.682 148.071 117.202C147.72 117.921 147.001 118.183 146.347 118.436C145.415 118.828 143.968 118.951 143.151 118.044C142.383 116.597 142.383 114.987 142.432 113.279C142.456 113.115 142.685 112.887 142.473 112.797C142.8 111.538 142.939 110.23 143.666 109.151L144.835 109.2H144.818ZM147.499 102.433C148.619 101.575 149.853 100.684 151.422 101.036L151.537 101.526C151.259 102.18 151.561 103.063 150.981 103.602C150.025 104.632 149.158 105.351 148.022 106.07C147.156 106.871 146.11 107.402 144.778 107.19C145.268 105.416 146.175 103.831 147.507 102.425L147.499 102.433Z" fill="#E11F1D"></path>
      <path d="M135.534 112.887C134.578 113.238 133.711 114.17 133.295 115.085C132.919 115.388 132.894 115.968 132.453 116.254C132.355 117.071 131.611 117.839 130.933 118.395C130.369 118.493 129.715 119.237 129.208 118.559C129.347 118.044 129.511 117.3 129.936 116.761C130.311 115.453 130.777 114.194 131.219 112.887C132.248 108.522 134.692 104.444 134.3 99.7279C134.087 99.0087 133.319 98.8861 132.665 98.8452C131.129 99.3846 129.911 100.341 128.587 101.412V101.6C127.631 102.041 127.304 103.095 126.576 103.839C126.225 104.215 126.83 104.542 127.067 104.771C128.816 104.28 130.05 102.507 131.268 101.248C131.521 100.856 131.832 100.897 132.224 100.97C131.987 103.21 131.014 105.122 130.262 107.133C130.05 107.623 129.862 108.138 129.535 108.604C129.069 110.1 128.236 111.497 127.86 112.968C127.042 114.791 126.74 116.605 126.339 118.616C126.944 119.687 128.301 119.94 129.372 120.365C129.886 120.365 130.328 119.875 130.818 120.128C132.845 119.613 134.619 118.542 135.975 116.769C136.376 116.442 135.673 116.066 136.139 115.763C136.139 115.02 136.376 114.366 136.376 113.638C136.278 113.263 135.951 112.895 135.534 112.895V112.887Z" fill="#E11F1D"></path>
      <path d="M9.38254 61.9438H9.49696C9.59503 61.7067 9.3335 61.5923 9.3335 61.3716L9.38254 61.9438Z" fill="#E11F1D"></path>
      <path d="M22.3042 127.631C21.5932 126.282 22.5903 124.639 21.4542 123.479C21.3316 123.34 21.1191 123.217 21.0047 123.479C21.0047 124.688 20.9311 125.874 21.2907 127.01C20.8657 127.884 20.8657 129.241 21.2907 130.189C22.4023 132.445 24.7316 134.006 25.1076 136.613C25.3446 137.275 24.7561 137.447 24.3475 137.7C23.3749 138.06 22.6883 137.34 21.9037 137.062C21.5441 136.637 20.8576 136.613 20.596 136.155C20.4326 136.466 19.9831 136.204 19.697 136.204C19.1984 136.466 19.4845 137.038 19.223 137.414C18.6263 137.487 18.1114 137.316 17.5883 137.177C16.6648 136.915 15.7167 136.588 14.9076 136.155C15.1201 135.869 15.496 136.016 15.7576 135.82C16.1335 134.186 14.409 133.213 14.6215 131.644C13.3874 127.279 15.0956 122.702 14.4581 118.174C13.4609 117.562 14.3191 116.826 14.172 115.943C14.3845 115.657 13.935 115.306 14.3355 115.093C14.8095 110.369 15.7085 105.514 17.3023 100.978C17.1143 100.602 16.6648 100.668 16.5667 100.341C16.8773 97.1615 18.0869 94.3173 18.8388 91.3096C18.9124 90.5985 18.8633 89.8384 19.2883 89.25C22.059 88.1139 19.4763 84.575 21.4951 82.8178L21.397 82.7033C20.972 82.9404 20.7595 83.4634 20.4244 83.8394C20.2773 83.9538 20.0648 84.3134 19.9013 84.0274C19.3782 83.3899 19.6888 82.3928 19.8523 81.6817C20.7513 80.9952 20.6369 79.7855 21.6749 79.2379C21.8138 79.0254 22.1734 79.287 22.2879 78.9519C21.6749 77.6932 23.3095 77.0557 23.996 76.1567H24.1595C24.2576 77.2682 24.56 78.8375 23.4239 79.475C24.1105 81.0687 22.9989 82.6053 22.4023 84.0274C22.3042 84.6404 21.8792 85.4005 22.2388 85.948C23.048 85.8745 23.8244 86.2586 24.56 86.5202C25.0831 87.2067 25.884 87.2312 26.4316 87.8932C25.1484 91.5221 25.2465 95.5024 24.3883 99.3192L24.5518 99.6053C25.0013 99.0822 24.8624 98.3221 25.1239 97.7336C25.173 97.5456 25.3855 97.4721 25.5734 97.4966C25.9739 98.036 26.023 98.7307 26.1456 99.3928C26.6441 100.888 27.0201 102.425 27.3552 103.994C28.5157 107.435 29.3004 111.056 32.0057 113.786C32.2672 114.072 32.6023 114.358 32.9292 114.284C31.9321 112.674 31.221 110.917 30.2484 109.282C28.8999 106.462 28.0907 103.406 27.1182 100.414C26.9302 97.9216 25.1975 95.0774 27.0691 92.7317C27.1427 92.0452 27.4696 91.187 26.7831 90.6639C27.0691 88.2937 28.3441 86.324 29.2268 84.1908C29.4148 83.3817 30.3383 83.7577 30.5754 82.9812C30.6244 82.1312 31.0494 81.1995 30.5263 80.423C30.4773 79.9735 30.5018 79.3115 31.0494 79.1235C31.9239 78.7639 32.7821 78.8865 33.6566 78.7231C35.1032 78.6985 36.2638 77.587 36.7379 76.2793C36.8605 75.3803 36.8359 74.4812 36.1004 73.7947C35.3403 73.5086 34.9643 72.536 34.7518 71.8005C34.6782 71.1139 35.4874 71.0894 35.61 70.4682C35.185 68.948 36.4845 67.1745 35.3239 65.7524C35.7489 62.8346 36.2475 59.8024 36.8441 56.8846C36.8686 55.863 37.4816 54.8904 37.4081 53.8687C37.3835 53.5336 37.8331 53.2721 37.596 53.0187L38.0456 50.5014C38.397 48.5317 38.7076 46.5211 38.7811 44.4043C38.5441 43.4562 38.1436 42.2466 37.0239 42.0096C36.4355 42.1485 36.7379 42.8432 36.5008 43.2192C36.3619 45.3279 36.0023 47.3221 35.8143 49.4062C35.2422 52.324 35.2013 55.5932 34.1061 58.3476C32.921 62.524 31.0494 66.6024 31.1393 71.1057L31.3273 71.2692C31.5153 71.3182 31.6379 71.1711 31.7768 71.0322C31.9893 70.3702 31.8504 69.749 31.8994 68.9889C31.973 68.3678 32.635 68.7764 32.921 68.4168C33.0845 67.3952 32.9946 66.3327 33.4196 65.3355C33.8201 63.2678 34.4903 61.3307 34.6292 59.1485C35.0052 58.7235 34.7682 57.8899 35.4138 57.7264C34.9643 62.9654 33.3542 67.8283 33.4932 73.2553C33.9917 74.4158 35.8879 74.8654 35.3157 76.3365C34.3186 77.3091 32.921 77.3827 31.548 77.4726C31.0494 77.399 31.3355 76.8351 31.0984 76.549C31.1475 76.2466 30.984 75.8625 31.1475 75.65C31.1475 74.2279 31.9811 72.8057 31.0984 71.5961C31.0004 71.5716 30.984 71.6697 30.935 71.7105C30.796 73.7783 30.273 75.6255 30.134 77.7586C29.848 78.5841 28.9244 79.3687 29.521 80.3658C29.284 80.7418 28.8345 80.6029 28.5484 80.8889C28.4994 81.9841 28.1234 82.973 27.6494 83.9048C27.298 83.9293 27.1263 83.0711 26.7994 83.6187C26.9383 84.4932 26.5133 85.1389 26.1129 85.7764C25.3773 85.2533 25.3773 84.1418 25.2629 83.3327C25.0504 83.1202 25.1893 82.7687 25.1403 82.4827C25.4999 79.5158 25.7778 76.2956 26.2273 73.3779C27.0119 67.5178 28.81 62.2788 30.3792 56.7538L30.3057 56.4678C30.6162 55.9937 30.6653 55.3971 30.8287 54.8822C31.1638 53.8115 31.3028 52.6754 31.8013 51.6783C32.0138 51.0163 32.4388 50.3298 32.4879 49.6841C32.7739 48.5726 33.06 47.4529 33.1008 46.2187C32.7657 45.9081 32.1773 45.8428 31.7932 45.9817C31.7032 47.0769 31.7441 48.3519 31.4417 49.398C29.5701 55.0702 28.0744 60.6605 26.6033 66.4716C25.6552 68.9644 25.2792 71.7841 24.7316 74.3913C23.1869 76.2875 20.9393 77.4726 19.5581 79.3932C19.035 79.8918 18.8715 80.5538 18.471 81.0524L17.8581 80.4067V77.7995C18.046 77.1375 18.6427 76.9168 19.1657 76.6144C18.5528 75.7317 18.1686 74.3423 18.8307 73.3697C20.0403 71.9966 21.8383 71.3264 22.9826 69.7899C23.0561 69.4384 23.5547 69.0298 23.1951 68.7029C21.4379 68.7519 21.2008 71.261 19.4518 71.1466C19.6398 70.8605 19.8114 70.5091 19.7379 70.174C18.6917 69.3894 19.8114 68.1144 19.6234 66.9947C20.4326 66.1202 19.7215 64.9514 20.0239 63.9134C19.9504 61.1836 21.0701 58.3639 21.5686 55.5687C21.7076 54.024 23.4893 52.8634 22.7047 51.2288C23.3912 47.461 24.3883 43.7586 25.598 40.2524C27.4042 40.7264 29.3494 40.2033 30.8859 39.4024C31.4581 39.4514 31.9321 39.0019 32.496 38.8793C33.109 38.9038 33.5667 38.6668 34.2042 38.8303C34.3186 39.3942 34.0816 40.2769 34.8172 40.6529C35.1278 40.9389 35.6263 40.9144 36.0023 40.8163C36.4273 40.0562 37.1138 39.2961 37.0975 38.4216C36.9994 38.1601 36.648 38.2336 36.4109 38.1355C35.9859 37.8086 35.4138 37.498 35.3893 36.8769C35.5119 35.5447 34.5148 33.6976 36.0023 32.7985C36.1167 32.5125 36.2883 31.9894 35.8388 31.8259C35.3648 32.0139 34.8907 31.5399 34.5311 32.112C33.4441 33.7221 34.0081 35.8144 34.0081 37.686L33.8446 37.8495C33.3951 37.7105 32.7821 37.8004 32.2999 38.0129C31.4254 38.1519 30.5917 38.487 29.7417 38.2009C29.8153 35.3322 31.7605 33.248 32.2508 30.5673L32.0138 30.3303C29.3576 29.3331 26.8893 31.0413 24.1186 30.6163L23.9552 30.4529C23.9552 29.1697 23.5302 28.0581 23.1951 26.9221C23.5956 25.075 25.9412 25.6144 27.298 24.8788C28.3605 23.5711 29.8071 22.9091 30.5018 21.4625C30.5999 21.1355 30.5508 20.7024 30.3138 20.4408C29.2268 21.25 27.6085 20.8413 26.734 22.0754C25.598 22.6476 24.1023 22.337 23.1052 21.6995C22.8681 20.6779 23.6037 19.9423 24.2903 19.2312C24.6907 18.7327 24.7888 17.9971 25.5489 18.0461C26.3581 17.7355 27.4451 17.8336 27.9436 16.9591C27.5432 16.387 26.7831 16.4605 26.2355 16.1745C25.0504 16.0764 23.9143 15.7985 22.6311 15.8149C22.3451 15.5533 21.8956 15.7168 21.6095 15.4389C21.634 14.8668 22.3206 15.1529 22.5821 14.7524C23.2686 14.8014 23.9061 14.1803 24.6907 14.3928C26.3254 13.9432 28.0826 14.1312 29.8561 14.0168C30.6407 13.7307 31.6133 13.6899 32.1282 13.0442L31.7932 12.7581C30.0196 12.4721 28.2133 12.2351 26.3907 12.5947C26.0393 12.5702 25.6552 12.6437 25.4181 12.6928C25.3691 12.6928 25.2792 12.7173 25.2547 12.6437C24.3066 13.1178 23.1706 13.0932 22.247 13.5428C21.0619 14.0413 19.9013 14.5889 18.8307 15.2019C18.7571 15.7005 19.2802 15.962 19.4927 16.338C19.7542 16.6894 20.3263 16.5505 20.6287 16.9019C21.2008 16.9755 21.8138 16.9264 22.2388 17.3024C22.6883 17.3514 23.1379 17.613 23.4239 17.9889C22.1653 19.0105 21.5523 20.4081 20.8167 21.6913C19.7052 22.0019 18.61 21.6178 17.6129 21.3399C13.796 19.3702 11.1153 23.2851 8.62248 25.5572C7.64988 26.9548 6.55469 27.7639 6.64459 29.5211C6.69363 29.9216 6.74267 30.3221 6.62825 30.7961C6.25229 31.8668 5.99075 33.0029 5.77825 34.1389C5.44315 35.7081 5.30421 37.4817 5.77825 39.0509C6.98786 38.8139 7.96046 39.0755 9.072 38.5769C9.88113 38.3154 10.5922 37.5553 10.7802 36.7053C10.5922 34.237 13.3629 33.1745 14.834 31.6543C15.6186 30.8043 16.9672 31.0168 17.8417 30.2322C17.9807 29.8562 18.2667 29.5456 18.1768 29.0961C17.8172 28.5976 17.2778 28.336 16.7057 28.2461C16.9427 28.099 17.3922 28.0336 17.7273 28.1235C19.1249 28.0091 20.6206 27.625 22.1162 27.7721L22.2797 28.4096C22.5412 29.9706 22.0672 31.5154 23.3667 32.5615C24.6254 32.488 25.8758 32.0875 27.0609 31.5889C28.148 31.5154 29.3412 30.9759 30.4037 31.4745C30.3302 35.6019 25.0912 36.5254 23.9797 40.0807C23.3667 44.3471 20.3263 47.6245 17.9561 51.1798C17.0326 51.8173 16.1989 52.6754 15.684 53.5745C15.259 54.6452 14.5234 55.8548 13.5018 56.6394C13.0768 56.8029 12.6028 57.3014 12.1532 56.8764C11.7528 56.1899 11.0172 55.3072 11.4667 54.5961C11.1561 54.1711 11.5648 53.5745 11.3523 53.0596C11.5893 51.9726 11.6383 50.9264 11.5157 49.7658C11.3278 49.1283 11.0172 48.4827 10.5677 47.9841C10.7066 45.4668 11.7773 43.3336 12.2758 40.9389C12.2023 40.0889 13.2239 38.9202 12.0388 38.3807C11.4667 38.0048 10.9763 38.5687 10.5677 38.7812C10.3797 39.6149 9.97104 40.4404 10.0936 41.3476C10.3061 41.699 10.6903 41.6827 10.9436 41.9115C9.30902 46.987 7.10229 54.3346 11.7936 58.511C13.2893 58.936 14.2619 57.4894 15.0465 56.5168C14.9484 56.2062 15.3326 56.3043 15.447 56.1408C15.823 55.5033 16.4196 54.8822 17.1552 54.6452C18.4547 51.8908 20.4081 49.3817 22.1571 46.8399L22.2797 46.9625C22.4186 48.6952 21.6667 50.1908 21.2581 51.7519C20.6206 52.798 20.8576 53.9831 20.4081 55.0947L20.171 55.2173L20.2855 55.3317C19.7869 56.5413 19.1004 57.6774 18.2422 58.748C16.0355 60.9057 14.0249 63.75 11.1725 64.4365C10.2244 64.412 10.8619 63.2514 10.6004 62.7774C10.7883 62.0663 10.723 60.9956 10.6494 60.1702C10.2489 59.5081 9.57873 58.936 8.77777 59.0341C7.87873 59.6961 8.01767 60.8158 7.51911 61.5923C7.33113 61.3062 7.47008 60.8812 7.18402 60.6197C5.63931 54.073 6.83257 47.0524 6.37488 39.6312L6.21142 39.3452C5.73738 39.2961 5.3369 39.5822 5.07536 39.9581C5.07536 48.3764 4.02921 56.7702 6.85709 64.6654C7.90325 67.0846 10.6004 65.3029 12.4311 65.5154C15.0874 63.5211 17.5311 60.8649 19.4273 58.2822C19.4518 58.7072 19.4028 59.2548 19.2638 59.7043C19.1249 61.0529 18.8388 62.2461 18.6263 63.5211C18.1768 65.7524 17.5148 68.0735 17.2042 70.4437C16.8446 71.8658 16.9917 73.3615 16.6321 74.7101C16.6321 77.1293 16.3706 79.3115 16.8691 81.6572C17.1552 82.2702 17.7682 82.5317 18.4138 82.5807C19.5989 89.4543 16.0927 95.2408 15.0465 101.64C14.785 109.707 11.5811 117.177 12.9379 125.359C12.5129 127.467 13.273 129.576 13.1749 131.693C13.0768 132.526 12.3657 133.254 11.5893 133.515C9.59507 132.968 7.65805 132.33 5.72921 131.619C3.99652 131.505 1.78979 130.312 0.367671 131.807C0.155171 132.396 0.269592 133.156 0.490265 133.728C1.36478 135.673 3.40806 136.499 5.15709 137.259C5.81911 137.496 6.53017 137.659 7.20036 137.994C9.52152 138.705 11.9407 139.416 14.4335 139.58C17.2532 140.266 20.7677 139.98 23.9879 140.054C24.8624 139.604 25.8105 138.918 26.0965 137.945C26.5951 136.384 25.7859 134.962 25.0013 133.728C23.9306 131.693 22.3696 130.025 22.2715 127.59L22.3042 127.631ZM9.25998 25.9331C9.97104 25.2466 11.2951 23.6774 12.2186 23.0644C13.3383 22.3043 14.4499 21.6423 15.8311 21.6913C16.5831 21.6913 17.0326 22.95 16.0109 22.8355C14.9811 22.7211 13.2321 23.6447 12.284 24.5274C11.9571 24.8298 9.83209 26.5706 9.25181 27.1101C9.30084 27.0447 9.33354 26.9793 9.39892 26.9139C10.347 25.9658 9.19459 26.0476 9.19459 26.0557C9.22729 26.0149 9.21911 25.9822 9.25181 25.9413L9.25998 25.9331ZM16.4441 24.9524C15.5206 25.1404 14.36 25.6471 13.5427 26.2601C11.859 27.5269 10.4042 28.9408 8.99844 30.698C9.1619 31.0331 8.99844 31.0985 9.48882 31.1394C10.8129 28.9327 14.7114 26.2029 15.3326 25.9904C16.8201 25.4918 15.3244 27.674 15.3244 27.674C14.4008 28.2461 13.371 29.0144 12.6109 29.7745L12.0307 30.1586C11.4667 30.7798 11.0008 31.2783 10.6821 32.0303C10.535 32.586 10.7148 32.6187 11.0417 32.4961C11.0417 32.4961 15.3816 27.5024 16.346 29.4966C16.3951 29.6029 9.52969 34.3759 8.41815 36.7952C8.05854 37.0322 7.75613 37.5062 7.34748 37.5307C6.99604 37.2692 6.70998 36.9178 6.8244 36.5091C7.48642 34.4658 8.08305 30.5182 8.08305 30.1341C8.08305 30.0442 8.09123 29.9543 8.11575 29.8644L8.62248 28.8755C8.62248 28.8755 8.87584 28.5894 9.00661 28.4586C9.73402 27.7721 10.11 27.2654 10.9436 26.5706C11.7282 25.925 12.235 25.2548 13.0114 24.699C13.8042 24.1269 15.8883 23.424 16.3215 23.6529C17.0816 24.0533 16.4441 24.9442 16.4441 24.9442V24.9524ZM22.6393 24.8543C22.3859 26.3908 20.5879 26.6524 19.9912 26.8649C18.5119 27.1019 17.5066 26.7014 17.5066 25.9331V23.898L18.1278 22.5577L19.035 22.4432H20.8903L22.6475 23.2033C22.86 23.5384 22.7782 24.5192 22.6475 24.8461L22.6393 24.8543ZM27.4369 37.8168C27.9518 37.5553 28.3278 37.4654 28.3278 37.4654V38.7404H27.1427C26.6114 38.7404 26.4725 38.6014 26.4725 38.6014C26.4725 38.6014 26.9138 38.0865 27.4287 37.8168H27.4369ZM9.41527 63.3822C9.41527 63.3822 8.87584 62.573 9.02296 62.0173C9.17008 61.4533 9.14556 60.7096 9.57873 61.1346C10.0119 61.5596 9.42344 63.3822 9.42344 63.3822H9.41527ZM14.4417 135.967C14.1066 135.51 12.5864 135.64 12.2513 134.537C13.1667 134.725 14.1066 134.864 14.4417 135.967ZM17.1797 138.558C12.3903 138.248 7.69075 136.989 3.52248 134.79C2.9994 134.194 1.9369 133.556 2.38642 132.633C3.35901 132.322 4.14363 132.845 5.11623 132.755C5.61478 132.919 6.13786 133.017 6.53834 133.368C8.0095 133.679 9.072 134.578 10.5922 134.79C10.3797 135.313 10.6903 135.763 10.8782 136.163C12.0879 137.545 13.796 137.185 15.2427 137.921L18.0869 138.73C17.8254 138.591 17.3513 138.779 17.1879 138.566L17.1797 138.558Z" fill="#E11F1D"></path>
      <path d="M28.2296 56.2553C28.6546 55.7322 28.7772 55.0702 28.9651 54.4491C28.7281 54.3019 28.4666 54.2366 28.156 54.2611C28.0171 54.8741 27.682 55.7976 28.2296 56.2553Z" fill="#E11F1D"></path>
      <path d="M24.8214 59.9005L24.9113 60.0231C25.8349 59.9986 25.7613 58.9769 26.0474 58.4375C26.5704 58.1024 26.3089 57.6529 26.6113 57.2279C26.9873 57.0889 27.1834 56.5659 27.2978 56.1572C27.1344 55.9447 27.1344 55.5606 26.7993 55.5197C26.0392 56.8928 24.7805 58.225 24.805 59.9087L24.8214 59.9005Z" fill="#E11F1D"></path>
      <path d="M168.847 101.248L168.57 100.921C168.243 99.9649 167.335 99.2457 166.608 98.7962C164.23 98.126 161.99 99.0986 160.282 100.684V100.848C159.048 102.221 158.884 104.133 158.925 105.89C159.301 108.972 160.07 111.677 161.001 114.521C161.328 116.082 160.813 117.905 159.481 119C158.149 119.539 156.285 119.302 155.166 118.322C155.215 118.109 155.076 117.807 155.28 117.643C155.166 117.251 155.444 116.875 155.672 116.524C155.721 115.518 156.351 114.685 156.163 113.63C155.926 113.026 155.419 112.813 154.953 112.437C154.185 112.388 153.719 113.14 153.204 113.508C152.46 114.538 152.738 115.682 152.763 116.867C153.302 117.938 153.793 119.041 154.209 120.161C154.561 120.3 154.839 120.561 155.239 120.626C156.408 120.839 157.528 120.602 158.533 121.231C161.165 121.509 162.824 119.18 163.919 117.194C164.107 116.793 164.434 116.401 164.36 115.96C164.221 115.698 164.36 115.257 164.246 115.077L163.919 111.832C161.982 109.241 162.66 105.931 162.685 102.801C162.848 102.082 162.309 101.142 162.897 100.513C163.478 100.259 164.205 99.8342 164.859 100.235C164.949 100.022 165.186 100.071 165.374 100.071C165.701 100.21 166.216 100.398 166.216 100.839C166.314 100.79 166.314 100.701 166.379 100.627C167.36 101.91 165.979 103.259 166.052 104.591C165.938 105.384 166.771 105.915 167.221 106.34C167.76 106.552 168.251 106.691 168.733 106.217C169.992 104.885 168.921 102.858 168.847 101.224V101.248Z" fill="#E11F1D"></path>
      <path d="M21.1761 23.8082C20.9391 23.9962 20.653 24.1433 20.604 24.4457C20.6776 24.8053 21.1026 24.6582 21.3396 24.7808C21.5276 24.5928 21.9362 24.5192 21.8627 24.1678C21.6502 23.9798 21.4867 23.7183 21.1761 23.8082Z" fill="#E11F1D"></path>
      <path d="M22.304 62.8019C22.1405 62.3034 21.9199 61.6659 21.454 61.4452C20.9309 61.9928 20.7675 62.8019 20.9309 63.4885C21.1189 63.938 21.4295 64.5346 21.9771 64.6245C22.0997 64.4611 22.116 64.0769 22.4756 64.224C22.9987 63.8481 23.6852 63.4394 23.7833 62.7529C23.6852 62.4178 23.3093 62.4423 23.1213 62.1808C22.8352 62.3933 22.6473 62.7774 22.3122 62.8019H22.304Z" fill="#E11F1D"></path>
      <path d="M21.0456 120.512L20.9966 122.792L21.3971 123.193C22.1817 122.67 21.5605 121.632 21.6831 120.847C21.6831 120.537 21.3235 120.087 21.0456 120.512Z" fill="#E11F1D"></path>
      <path d="M21.2827 99.4091C21.3971 100.284 21.4707 100.995 21.6832 101.853C22.2553 101.215 21.9693 100.194 22.1327 99.4582C22.0346 99.0086 21.3971 99.0086 21.2827 99.4091Z" fill="#E11F1D"></path>
      <path d="M36.6969 136.687C37.882 136.564 38.9936 136.638 40.1133 136.564L40.5628 135.992C40.7017 135.828 41.0614 135.828 41.2003 135.992C41.7479 135.828 42.0094 136.351 42.508 136.327C42.745 136.253 43.121 136.065 43.121 135.828C43.1455 135.64 43.121 135.477 42.9575 135.354C41.4128 135.877 40.9878 133.295 39.4921 134.047C38.6176 133.311 37.4734 132.551 36.8604 131.562C36.3373 131.636 36.1493 130.99 35.8388 130.753C35.4628 130.467 34.9397 130.132 34.7681 129.731C32.1854 126.862 30.0032 124.043 27.87 120.962C26.4724 118.755 25.0993 116.499 24.4046 114.08C24.1921 113.442 23.9061 112.846 23.7671 112.208C23.1296 109.838 22.8436 107.558 23.1541 105.024C23.2032 104.812 23.0152 104.313 23.3176 104.125C23.3176 102.703 23.9142 101.33 24.3392 100.071C24.2412 99.8587 23.9633 99.9976 23.7671 99.9731C23.432 101.869 22.9171 103.479 22.2469 105.261H22.059C21.7239 104.763 21.7484 104.1 21.2743 103.675C21.2989 103.488 21.2253 103.365 21.1027 103.267C21.0291 103.267 20.9147 103.218 20.8657 103.316C20.7676 103.978 20.8166 104.91 20.8166 105.596C21.1272 106.307 21.3397 107.043 21.4787 107.827C21.8301 111.031 20.457 113.925 20.457 116.981C20.6695 117.57 21.2907 118.215 20.8085 118.853C22.3532 119.875 21.1844 117.431 22.2306 117.431C22.3041 115.87 22.5412 114.137 22.4431 112.494C22.4676 112.38 22.582 112.282 22.6801 112.257C22.8027 112.494 22.8926 112.731 22.8926 112.993C23.3176 113.205 22.9907 113.753 23.4157 113.965C25.5243 119.18 28.0662 124.067 31.4335 128.759C32.2835 129.47 32.9046 130.467 33.7138 131.153C34.5392 132.273 35.8224 133.074 36.6806 133.924C37.0811 134.161 37.6041 134.349 37.8166 134.782C37.5061 135.142 36.9667 134.921 36.558 135.068C35.6099 135.044 34.8498 135.142 33.9998 135.183C33.9263 135.33 33.6892 135.395 33.7873 135.583C34.5229 136.008 35.5445 136.008 36.4681 136.155C36.3945 136.392 36.5416 136.531 36.6806 136.678L36.6969 136.687Z" fill="#E11F1D"></path>
      <path d="M23.1624 61.2082C23.187 61.0856 23.1379 60.9957 23.0399 60.9221C22.9009 61.0202 22.6639 61.2082 22.8274 61.3716C22.9663 61.4452 23.0644 61.2981 23.1624 61.2082Z" fill="#E11F1D"></path>
      <path d="M19.3865 24.74C19.0432 25.0179 18.6264 25.2222 18.561 25.6717C18.6673 26.1866 19.2884 25.9823 19.6317 26.1539C19.9096 25.8842 20.4899 25.7779 20.3918 25.263C20.0812 24.9933 19.8442 24.6092 19.3947 24.7481L19.3865 24.74Z" fill="#E11F1D"></path>
    </g>
  </g>
  <defs>
    <clipPath id="clip0_589_2329">
      <rect width="170" height="140.577" fill="white"></rect>
    </clipPath>
    <clipPath id="clip1_589_2329">
      <rect width="169.087" height="139.335" fill="white" transform="translate(0.254883 0.719238)"></rect>
    </clipPath>
  </defs>
</svg>
