<svg xmlns="http://www.w3.org/2000/svg" xmlns:xlink="http://www.w3.org/1999/xlink" width="236px" height="68px" viewBox="0 0 236 68"><title>CS-logo-white</title><g id="Symbols" stroke="none" stroke-width="1" fill="none" fill-rule="evenodd"><g id="Header/Light" transform="translate(-109.000000, -79.000000)" fill="#FFFFFF"><g id="CS-logo-white" transform="translate(109.000000, 79.000000)"><path d="M2.11417037,40.7786524 C2.24741031,40.7489558 2.3809717,40.833551 2.41070558,40.9674264 C4.47262983,50.175459 10.4468902,57.9660809 18.8021113,62.3423965 C27.1571717,66.7193542 36.9714425,67.1983523 45.7283122,63.656752 L45.7283122,63.656752 L45.7929171,63.6396125 C45.9013312,63.6270643 46.00915,63.6874384 46.0520097,63.7935168 L46.0520097,63.7935168 L46.6142212,65.1802678 C46.6658135,65.3074013 46.6040956,65.4521923 46.4768024,65.5035594 C42.381402,67.1596665 38.0741678,68 33.6740353,68 C28.1996256,68 22.736788,66.6537007 17.8753785,64.1073377 C9.00005551,59.4584554 2.65323763,51.1827356 0.463377328,41.4024415 C0.433643445,41.268566 0.518184107,41.1351721 0.651584771,41.1054755 L0.651584771,41.1054755 Z M124.932273,43.3631876 C130.034285,43.3631876 133.879439,46.8993302 133.879439,53.0214848 L133.879439,54.3144908 L119.031302,54.3144908 C119.145738,57.9647646 121.544217,60.0942516 124.970364,60.0942516 C127.940377,60.0942516 129.881759,58.5350999 130.567245,56.2534379 L133.689303,56.2534379 C132.661153,60.4745286 129.615279,63.1361465 124.932273,63.1361465 C119.145738,63.1361465 115.642765,59.1816831 115.642765,53.2494262 C115.642765,47.3178114 119.945016,43.3631876 124.932273,43.3631876 Z M216.614531,34.9975753 L216.614531,62.7558695 L213.263603,62.7558695 L213.263603,60.6645868 C212.159753,61.843301 210.142027,63.1361465 207.210106,63.1361465 C202.527421,63.1361465 198.491649,59.3335371 198.491649,53.2494262 C198.491649,47.1654759 202.146667,43.3633481 207.134405,43.3633481 C209.570976,43.3633481 211.816929,44.2377123 213.263603,45.7588202 L213.263603,34.9975753 L216.614531,34.9975753 Z M105.248908,38.0395986 L108.599354,39.2563566 L108.599354,43.7431114 L113.167925,43.7431114 L113.167925,46.7851668 L108.599354,46.7851668 L108.599354,58.1165865 C108.599354,59.3715487 109.322289,60.1698254 110.959742,60.1698254 C111.835204,60.1698254 112.292463,60.0561757 112.977307,59.941884 L112.977307,62.7558374 C111.94964,63.0219831 111.226062,63.1361144 109.931593,63.1361144 C107.038245,63.1361144 105.248908,61.5008752 105.248908,58.3446885 L105.248908,46.7851668 L101.479455,46.7851668 L101.479455,43.7431114 L105.248908,43.7431114 L105.248908,38.0395986 Z M172.715249,43.3632839 C177.170028,43.3632839 180.063376,45.758756 180.063376,49.3711467 L180.063376,58.2690504 C180.063376,59.4858084 180.596175,60.2460414 181.73876,60.2460414 C182.043331,60.2460414 182.347902,60.2079976 182.728335,60.0941874 L182.728335,62.6034698 C181.814461,62.9081408 181.205318,62.9839073 180.596175,62.9839073 C178.921273,62.9839073 177.360164,62.2997618 176.827365,60.0180999 C175.532736,61.4627993 173.057912,63.1362428 170.392953,63.1362428 C166.814279,63.1362428 164.339456,61.0067559 164.339456,57.6224672 C164.339456,53.8959453 167.347239,51.9945603 170.773868,51.6523271 L176.71293,51.0439481 L176.71293,49.7514237 C176.71293,47.4697617 174.923593,46.4051788 172.486861,46.4051788 C170.469297,46.4051788 168.870096,47.3179078 168.337136,49.4852779 L165.176987,49.4852779 C165.78613,45.2266251 169.28862,43.3632839 172.715249,43.3632839 Z M227.465438,43.3632839 C231.53898,43.3632839 234.280122,45.4545665 234.622946,49.3711467 L231.310591,49.3711467 C231.044111,47.3179078 229.559346,46.2528432 227.465438,46.2528432 C225.980672,46.2528432 224.228945,46.8994265 224.228945,48.4203739 C224.228945,49.8271901 225.790054,50.5879046 229.216683,51.5004731 C233.214363,52.5653771 235.384615,54.0102371 235.384615,56.9760445 C235.384615,60.4746249 232.528877,63.1362428 228.188534,63.1362428 C223.657893,63.1362428 220.726615,60.7783328 220.3457,56.8241905 L223.505849,56.8241905 C224.000717,58.7631377 225.219003,60.0941874 228.264877,60.0941874 C230.282442,60.0941874 232.110031,59.1435752 232.110031,57.3945257 C232.110031,55.6830385 230.358786,54.9228055 226.627424,53.9721933 C222.858614,53.0214206 221.031186,51.4624294 221.031186,48.496622 C221.031186,45.7207123 223.657893,43.3632839 227.465438,43.3632839 Z M89.1051776,35.7582256 C94.3974873,35.7582256 97.7858642,38.572179 98.1282057,43.3632839 L94.6638065,43.3632839 C94.2449605,40.5112867 92.3034183,39.1044705 89.1051776,39.1044705 C86.2876913,39.1044705 84.3080576,40.3594327 84.3080576,42.2226134 C84.3080576,44.5419981 86.4402181,45.5683768 91.1609943,46.6332808 C96.262525,47.7739512 99.3083997,50.2074671 99.3083997,54.7324263 C99.3083997,59.7899979 95.1586747,63.1362428 89.8287557,63.1362428 C84.726582,63.1362428 80.120241,59.8280416 79.8151875,54.4662805 L83.3562518,54.4662805 C83.6989148,57.9266567 86.4783096,59.7899979 89.8287557,59.7899979 C93.0265142,59.7899979 95.6533823,58.1547587 95.6533823,54.846718 C95.6533823,51.8046626 93.8259539,50.4736129 88.7242624,49.3711467 C84.1555308,48.3823302 80.7293838,46.595237 80.7293838,42.3364236 C80.7293838,38.343756 84.4220107,35.7582256 89.1051776,35.7582256 Z M139.249025,43.7431435 L142.827698,56.0253359 L143.360658,59.4096246 L143.969801,56.0253359 L147.624819,43.7431435 L151.013195,43.7431435 L154.630121,56.0253359 L155.277356,59.4096246 L155.810315,56.0253359 L159.389471,43.7431435 L162.930054,43.7431435 L157.219219,62.7558695 L153.488019,62.7558695 L149.300202,47.6220009 L145.149995,62.7558695 L141.418795,62.7558695 L135.70796,43.7431435 L139.249025,43.7431435 Z M195.330921,43.3631876 C196.016408,43.3631876 196.511115,43.4769978 196.853939,43.6675376 L196.320979,46.4432867 C196.016408,46.3671992 195.749928,46.3291555 195.102694,46.3291555 C192.970533,46.3291555 190.99106,47.6220009 189.734683,49.9794294 L189.734683,62.7558695 L186.384237,62.7558695 L186.384237,43.7431435 L189.734683,43.7431435 L189.734683,46.2148637 C191.028669,44.73196 192.932442,43.3631876 195.330921,43.3631876 Z M176.71293,53.7060476 L171.002096,54.3524703 C168.755661,54.618616 167.689902,55.9491842 167.689902,57.4701317 C167.689902,59.2577064 169.02214,60.0941874 170.773868,60.0941874 C173.096165,60.0941874 175.038028,58.8011814 176.71293,57.1278984 L176.71293,53.7060476 Z M207.743548,46.405243 C204.545146,46.405243 201.842095,48.4584819 201.842095,53.2494262 C201.842095,58.0410127 204.545146,60.0942516 207.743548,60.0942516 C210.75117,60.0942516 213.263603,57.8124291 213.263603,55.1127675 L213.263603,51.4623331 C213.263603,48.7626714 210.75117,46.405243 207.743548,46.405243 Z M54.2746981,7.2298905 C54.3593995,7.12169856 54.5159443,7.10195434 54.6242721,7.18590743 C67.6192648,17.2854801 71.4917414,35.2026423 63.8322931,49.7894514 C62.0440813,53.1942869 59.7200168,56.2434053 56.9251925,58.8506062 C56.8249009,58.9440301 56.6670702,58.9385723 56.5736898,58.8384065 L56.5736898,58.8384065 L55.5514871,57.7452506 C55.4574637,57.6450848 55.4627676,57.487452 55.5630592,57.3941886 C58.1939453,54.9398048 60.3817162,52.0699897 62.0649754,48.8633991 C69.2761653,35.1316915 65.6312734,18.2657889 53.3989147,8.75870353 L53.3989147,8.75870353 L53.3515614,8.71131977 C53.2862563,8.62413246 53.2842919,8.50053039 53.3548764,8.41037045 L53.3548764,8.41037045 Z M16.200845,18.2292296 C16.581032,18.221382 16.9777528,18.4058124 17.3218783,18.818563 C17.6312714,19.1893692 18.8469854,20.0268133 18.9858506,20.6393658 C19.089196,21.0957303 18.9909938,21.6586815 19.5657417,21.8228957 C20.3648599,22.0513187 20.4755985,24.0870607 20.2343523,24.3440567 C19.4747721,25.1532489 17.4969064,23.8051838 17.1759411,24.121573 C16.8300638,24.4623616 17.8136928,24.7585249 17.335379,25.8733513 C17.1699944,26.2586045 16.2252605,26.7464313 14.4347986,27.1230163 C12.5276512,27.5240007 14.4502281,31.5664302 12.292191,33.3040826 C12.0123711,33.5294557 11.7637315,33.7915884 11.5734347,34.0960989 C11.3072763,34.5219642 11.0110625,35.1211934 11.0110625,35.6778842 C11.0110625,36.3865896 11.2132529,37.5462016 11.854219,38.0513649 C12.3513374,38.4431995 12.9161204,38.7416101 13.5074229,38.9681069 C13.6551279,39.0247712 13.8037974,39.0791882 13.9534311,39.132 C14.4325484,39.3010299 14.7830868,39.5951065 15.0035997,40.0280347 C15.6291363,41.2566713 16.6302842,42.0735686 17.835069,42.6797003 C18.4705705,42.9992999 19.135163,43.2416883 19.8211317,43.4251652 C20.3105353,43.5561512 20.619607,43.8643538 20.7158805,44.3544279 C20.8042785,44.8030874 20.5705862,45.1310341 20.2383704,45.4002298 C20.0942012,45.5170899 19.9444067,45.6272081 19.7979875,45.7414999 C19.3568009,46.0859805 19.1295376,46.5240454 19.151396,47.0977516 C19.1722901,47.6542819 19.1451278,48.2124175 19.1594322,48.7691083 C19.1763082,49.4253229 18.9358656,49.9300046 18.408049,50.338694 C18.408049,50.338694 18.0605643,50.954136 18.3371698,51.5064927 C18.6136146,52.0588494 19.1666648,52.8873043 19.1666648,52.8873043 L19.1666648,52.8873043 L19.5353649,53.2555421 C19.5353649,53.2555421 20.3005704,54.3061597 20.0209112,55.377324 C18.0147581,53.9976361 16.223814,52.3286872 14.7083503,50.4303522 L14.7083503,50.4303522 L14.3591896,49.9826588 C12.8686018,48.024723 11.6650495,45.8370771 10.8119741,43.4815405 L10.8119741,43.4815405 L10.6720823,43.0900754 C10.0294724,41.2427101 9.60090279,39.2953845 9.4166031,37.2773752 C9.34845626,36.5314287 9.31341849,35.776172 9.31341849,35.012568 C9.31341849,33.8060835 9.40069146,32.6199853 9.56864771,31.4600522 C10.2996191,26.4084198 12.5663053,21.8532825 15.8807493,18.2816645 C15.9443959,18.2615993 16.0093282,18.2477943 16.0747428,18.2389656 L16.0747428,18.2389656 Z M43.0149909,11.2842147 C51.9804799,14.8715639 58.3391913,23.5745938 58.4735563,33.7786663 C58.4441439,33.7899029 58.4078203,33.7828399 58.3885335,33.7494513 C57.9900994,33.0587244 57.6985467,31.9461454 56.9458776,31.7705341 C55.3240148,31.3920229 53.6274155,30.5441448 53.2270528,30.3600259 C52.0033026,29.7973957 52.2130471,31.0167221 53.3622214,31.530393 C54.7920194,32.1694317 51.426626,31.8064911 54.1253375,34.9883613 C55.6346937,36.7680705 50.0898871,35.0527307 49.2256758,33.1340093 C49.0667201,32.7811816 48.3486066,33.1041522 48.392002,33.4444592 C48.4953473,34.2563803 48.650285,34.4117657 49.312788,35.659986 C49.6329496,36.2632283 50.1847141,37.1252323 50.8968807,37.293299 C51.5249889,37.4414609 52.7074331,37.9774444 52.1371855,38.8710713 C51.4852902,39.8924738 50.9481516,39.8228071 49.931735,41.1267286 C49.5159428,41.6601438 49.2664996,41.9877695 49.1393672,42.5112323 C49.0212352,42.998417 49.0990255,43.5128905 49.2595885,44.5222539 C49.4584037,45.7714373 49.638575,46.1889554 49.3582728,46.605992 C49.2369264,46.7865794 49.1928882,46.7236547 48.7071812,47.1557804 C48.1820969,47.6228999 47.8829901,47.844902 47.813236,48.1322367 C47.6668167,48.7351579 48.0204088,48.5938984 47.7950742,49.6843254 C47.716641,50.0639603 46.0404537,52.8312018 44.9417465,53.5391045 C44.5116499,53.8161658 42.6462907,54.1730065 42.4359034,52.5737243 C42.3010562,51.5491113 42.3118247,51.2696423 41.4959913,50.3034594 C40.1714673,48.7351579 41.3028014,44.4272247 40.785914,43.211751 C40.3419952,42.1683569 39.8413409,41.9477995 39.8101605,41.1578699 C39.7810695,40.4186654 39.3175423,39.8305122 38.8366571,39.6001629 C37.4137702,38.9185858 35.433815,39.6955131 34.1427216,39.3720609 C32.7841243,39.0317539 31.8625346,37.1395187 31.6672553,36.4937381 C31.3326286,35.3875799 31.1911917,33.9045157 31.9760055,32.5856656 C32.1947505,32.2182304 32.2466642,32.2212803 33.0612119,30.9918411 C33.4123932,30.461797 34.0760213,28.9665331 34.3026417,28.7145133 C34.6922359,28.2814245 35.1750499,28.3970004 36.1456603,28.2372809 C37.9809641,27.9350177 38.2774993,27.1966157 39.3474369,27.4494381 C40.52297,27.7271415 40.4850392,28.7352206 40.6266368,29.0593149 C40.8796159,29.6381578 41.7558815,29.9038219 42.387847,29.7765279 C43.0741372,29.6381578 44.9481754,29.5956194 45.6748073,29.7813435 C46.1446026,29.9010931 46.8103201,30.0723702 47.3283326,29.7511654 C48.0694295,29.2915904 49.2926976,28.0456174 47.4422857,27.6560302 C47.2127723,27.607713 47.1187489,27.8473726 46.9747405,27.9414386 C46.4949803,28.2550988 45.7847423,27.8863795 45.2339422,27.3707823 C45.0153579,27.1661165 44.5415445,27.0474907 44.2477416,27.2494275 C43.5524509,27.7271415 41.5289396,26.799805 41.0343928,26.0814683 C40.52297,25.3384112 38.7045422,24.6404609 37.1720418,26.1858077 C35.6675073,27.7029026 34.9866817,26.1244882 34.9866817,25.2218721 C34.9866817,24.8178379 36.3301711,24.865834 36.2798646,24.4359557 C36.2176645,23.9051089 35.2790381,23.0612439 35.8987887,22.790443 C38.4499559,21.6756166 38.0108587,19.5973362 39.8850577,18.9684104 C40.6452808,18.7133407 41.6390353,19.6053623 44.3768027,17.8537446 C45.03802,17.4306081 45.6625923,17.7651363 45.8361738,17.4304476 C45.9256969,17.2578863 45.9258577,16.8838697 45.7312213,16.8588282 C44.4042865,16.6878721 44.7638254,17.5715466 41.6935207,18.041716 C40.8418458,18.1722205 37.8122042,17.6943461 38.2098347,16.1610384 C38.3040187,15.7979373 38.7053458,15.7910348 39.5788791,15.1629116 C40.0444956,14.8279019 40.6822472,13.5538375 41.4837763,13.2575136 C41.9751086,13.0758025 42.0230042,11.6821491 42.6879182,11.3822937 L42.6879182,11.3822937 L42.7314743,11.3628706 C42.8226046,11.3225795 42.9180745,11.2970565 43.0149909,11.2842147 Z M124.932273,46.405243 C121.962742,46.405243 119.602354,48.2303799 119.069394,51.4242893 L130.719772,51.4242893 C130.45281,48.0780444 127.902286,46.405243 124.932273,46.405243 Z M52.7779908,41.4287992 C52.9067305,41.2077602 53.2291422,41.2119338 53.3472741,41.4387516 C53.4817999,41.6968712 53.5959137,41.9904663 53.554447,42.1882296 C53.4649239,42.615379 53.2468218,43.3480022 53.4851751,44.2207611 C53.7235283,45.0935201 53.3262193,46.3629293 52.6113204,46.6009837 C51.8964214,46.8390381 51.4197149,45.4108724 51.6580681,45.0142222 C51.8964214,44.6174114 51.5786706,43.7446524 51.4992731,43.1099478 C51.4197149,42.4752432 51.8964214,42.3166473 52.3729671,41.9198365 C52.5483167,41.7739219 52.680753,41.5957423 52.7779908,41.4287992 Z M178.883616,5.26084544 L182.234062,6.4776034 L182.234062,10.9648398 L186.802633,10.9648398 L186.802633,14.0068952 L182.234062,14.0068952 L182.234062,25.3378334 C182.234062,26.5927956 182.956997,27.3915538 184.59445,27.3915538 C185.469912,27.3915538 185.926689,27.2774226 186.612015,27.1631308 L186.612015,29.9770842 C185.584347,30.24323 184.860769,30.3573612 183.566301,30.3573612 C180.672953,30.3573612 178.883616,28.722122 178.883616,25.5664169 L178.883616,14.0068952 L175.114163,14.0068952 L175.114163,10.9648398 L178.883616,10.9648398 L178.883616,5.26084544 Z M93.2930905,2.97947242 C99.6892506,2.97947242 104.067685,6.70615485 105.171696,12.1435219 L101.516679,12.1435219 C100.45092,8.53129179 97.4809071,6.32571734 93.2548383,6.32571734 C87.4678211,6.32571734 83.7751942,10.6983409 83.7751942,16.668481 C83.7751942,22.6381396 87.4678211,27.0112447 93.2548383,27.0112447 C97.4809071,27.0112447 100.45092,24.8056703 101.516679,21.1934402 L105.171696,21.1934402 C104.067685,26.6308072 99.6509984,30.3574897 93.2930905,30.3574897 C86.0593993,30.3574897 80.0439937,24.843714 80.0439937,16.668481 C80.0439937,8.49324804 86.0593993,2.97947242 93.2930905,2.97947242 Z M164.491082,10.5845147 C168.945861,10.5845147 171.839209,12.9799868 171.839209,16.592217 L171.839209,25.4902812 C171.839209,26.7070392 172.372008,27.4672721 173.514593,27.4672721 C173.819164,27.4672721 174.123735,27.4292284 174.504168,27.3154182 L174.504168,29.8251821 C173.590294,30.1288901 172.981151,30.2051381 172.372008,30.2051381 C170.697106,30.2051381 169.135997,29.5205111 168.603198,27.2393307 C167.308569,28.6840301 164.833745,30.3574736 162.168786,30.3574736 C158.590112,30.3574736 156.115289,28.2279867 156.115289,24.843698 C156.115289,21.1171761 159.123072,19.2157911 162.549701,18.8740394 L168.488763,18.2656605 L168.488763,16.9726545 C168.488763,14.6909925 166.699426,13.6264096 164.262694,13.6264096 C162.24513,13.6264096 160.645929,14.5391386 160.112969,16.7065087 L156.95282,16.7065087 C157.561963,12.4476954 161.064453,10.5845147 164.491082,10.5845147 Z M198.567462,10.5844184 C203.668993,10.5844184 207.514147,14.120561 207.514147,20.2427156 L207.514147,21.5357216 L192.66601,21.5357216 C192.779963,25.1859954 195.178925,27.3154824 198.605072,27.3154824 C201.575085,27.3154824 203.516466,25.7563307 204.201953,23.4746687 L207.324011,23.4746687 C206.295861,27.6952778 203.250147,30.3573773 198.567462,30.3573773 C192.779963,30.3573773 189.277472,26.4029139 189.277472,20.470657 C189.277472,14.5390422 193.579724,10.5844184 198.567462,10.5844184 Z M146.557549,10.5844344 C150.441276,10.5844344 152.154269,12.7519651 152.154269,15.7177725 L152.154269,29.9771164 L148.803984,29.9771164 L148.803984,16.706589 C148.803984,14.7671603 147.813926,13.5502418 145.720018,13.5502418 C143.816246,13.5502418 142.179436,14.5010145 140.923058,16.250064 L140.923058,29.9771164 L137.572612,29.9771164 L137.572612,16.858443 C137.572612,14.8432478 136.69699,13.5502418 134.526738,13.5502418 C132.699309,13.5502418 130.948064,14.957058 129.691687,16.706589 L129.691687,29.9771164 L126.341241,29.9771164 L126.341241,10.9648719 L129.691687,10.9648719 L129.691687,13.2080086 C131.176452,11.6108131 133.118316,10.5844344 135.478704,10.5844344 C137.915275,10.5844344 139.285605,11.4971634 140.237572,13.3223003 C142.103092,11.6108131 144.197161,10.5844344 146.557549,10.5844344 Z M112.940212,2.21877397 L112.940212,29.9770682 L109.589766,29.9770682 L109.589766,2.21877397 L112.940212,2.21877397 Z M121.316006,10.9648238 L121.316006,29.9770682 L117.96556,29.9770682 L117.96556,10.9648238 L121.316006,10.9648238 Z M20.9226997,2.48066587 C28.301203,-0.495254426 36.5154694,-0.804420103 44.0516426,1.61143838 C44.182311,1.65333466 44.2547974,1.7926679 44.2128485,1.92397502 L44.2128485,1.92397502 L43.7549467,3.34796709 C43.7129978,3.47863213 43.572686,3.55022501 43.4420177,3.50897081 C36.348799,1.23533496 28.6168643,1.5268432 21.6697434,4.328918 C14.6429036,7.16277618 8.83129563,12.4206795 5.30630362,19.1341977 C3.6224015,22.3403068 2.50280026,25.7693811 1.97707306,29.3257495 C1.95682187,29.4618723 1.8308145,29.5557778 1.69468153,29.535552 L1.69468153,29.535552 L0.212648368,29.3170813 C0.077158296,29.2973371 -0.0170257876,29.1708457 0.00258250283,29.0348834 L0.00258250283,29.0348834 C0.56141878,25.2560313 1.7507741,21.613623 3.53914662,18.2081454 C7.28352648,11.077109 13.4575664,5.49125895 20.9226997,2.48066587 Z M168.488763,20.9272784 L162.777929,21.5737011 C160.531494,21.8398468 159.465735,23.170415 159.465735,24.6913625 C159.465735,26.4784557 160.797973,27.3154182 162.549701,27.3154182 C164.871837,27.3154182 166.813861,26.0224122 168.488763,24.3496108 L168.488763,20.9272784 Z M34.2846889,16.6274997 C34.8329174,15.832594 34.8014155,15.8645379 35.3300358,16.0094894 C35.5347977,16.0656722 35.4097547,16.6274997 35.6598408,16.9397153 C36.1764067,17.5845328 35.8692637,18.6280874 36.5973421,19.1245824 C36.6778646,19.179481 37.2223965,19.68641 37.159875,19.9360219 C36.9412908,20.809423 36.4097775,20.0609082 35.3472332,21.1845633 C34.6593358,21.9120497 34.1384303,21.8858846 33.972242,20.9972339 C33.8541101,20.3654187 35.0347863,18.8123668 34.5347749,18.1880962 C34.3628006,17.973478 34.0940706,16.9042399 34.2846889,16.6274997 Z M33.3203789,18.3236892 C33.5439455,18.2628513 33.6898826,18.4078028 33.874072,18.5704118 C34.3837268,19.0203554 33.892073,19.4117084 33.6104851,19.4030402 C33.5902339,19.4023981 33.569822,19.4030402 33.5495708,19.4030402 C33.5487672,19.408819 32.882889,19.3348183 32.5522803,19.2823276 C32.3561974,19.2511863 32.2866041,19.0694752 32.4055396,18.9107188 C32.5582271,18.7073372 32.7671679,18.5705723 32.9889666,18.4553174 C33.0939192,18.4005793 33.2061043,18.35467 33.3203789,18.3236892 Z M198.567462,13.6264738 C195.597449,13.6264738 193.237061,15.4516107 192.704101,18.6455201 L204.353998,18.6455201 C204.087518,15.2992752 201.536993,13.6264738 198.567462,13.6264738 Z M30.7095671,9.58226247 C30.7018524,9.63041911 30.693334,9.68130464 30.6843335,9.73331382 L30.6843335,9.73331382 L30.648314,9.93043802 C30.5418051,10.4740273 30.3484764,11.1486484 29.9183083,11.6246501 C29.3893667,12.2095928 27.2885473,13.3947279 26.0136869,13.7780548 C25.4190093,13.9568765 24.5779422,14.5093938 24.2097242,15.1074994 C23.2667583,16.6401649 23.607814,16.9965241 23.3950158,17.1121001 C22.7939092,17.4387627 21.7760461,16.6191365 21.5799632,16.4611827 C20.8546172,15.8770426 20.5400809,15.1474694 20.2269911,14.4214277 C20.1342536,14.2060069 20.0575884,14.0015017 19.9916917,13.8075909 C20.2755735,13.613651 20.5637245,13.4254925 20.8559756,13.2432861 L20.4207112,13.5209951 L20.4207112,13.5209951 L19.9917077,13.8075267 L19.9917077,13.8075267 L19.9494374,13.6813563 C23.0893354,11.5313225 26.7527106,10.0882283 30.7095671,9.58226247 Z M29.7278668,13.5188276 C31.07666,12.7903781 32.1279537,13.5928283 32.0233226,14.1260829 C31.9818559,14.3373301 31.6907853,14.5561218 31.408233,14.6712162 C30.9999948,14.8375171 30.7069956,14.7757161 30.3021326,14.6949735 C29.0346655,14.4419905 29.3688101,13.7127384 29.7278668,13.5188276 Z M119.640461,3.51177995 C120.896999,3.51177995 121.924988,4.5386402 121.924988,5.79296034 C121.924988,7.04792258 120.896999,8.07478282 119.640461,8.07478282 C118.383923,8.07478282 117.356417,7.04792258 117.356417,5.79296034 C117.356417,4.5386402 118.383923,3.51177995 119.640461,3.51177995 Z" id="Combined-Shape"></path></g></g></g></svg>